<?xml version="1.0" encoding="UTF-8" standalone="no"?><!DOCTYPE svg PUBLIC "-//W3C//DTD SVG 1.1//EN" "http://www.w3.org/Graphics/SVG/1.1/DTD/svg11.dtd"><svg width="100%" height="100%" viewBox="0 0 24 29" version="1.1" xmlns="http://www.w3.org/2000/svg" xmlns:xlink="http://www.w3.org/1999/xlink" xml:space="preserve" style="fill-rule:evenodd;clip-rule:evenodd;stroke-linejoin:round;stroke-miterlimit:1.41421;"><path id="hordes.-icon" d="M22.974,13.791l-22.236,-0.344l-0.738,-9.344c0,0 2.245,2.94 4.133,4.661c0.602,0.558 1.252,1.062 1.943,1.504l-0.494,1.771c0.946,-0.391 1.695,-0.835 2.062,-1.318c0.032,0.013 4.382,-10.056 4.382,-10.056l3.715,9.739c0.461,0.856 1.791,1.579 2.765,1.827l-1.128,-2.544c2.908,-2.116 3.929,-3.04 6.622,-5.585l-1.026,9.689m-0.526,4.289l-21.186,-0.344l-0.236,-2.914l21.947,0.344l-0.525,2.914m-0.877,9.65l-1.338,1.27l-16.667,-0.032l-1.426,-1.122l0,-8.953l19.431,0.406m-13.853,5.552c-0.007,-0.123 -0.036,-0.383 -0.055,-0.5c-0.089,-0.554 -0.62,-1.685 -1.156,-1.945c-0.032,-0.011 -0.102,-0.028 -0.136,-0.033c-0.046,-0.007 -0.087,-0.007 -0.134,-0.007c-0.347,0.017 -0.786,0.58 -0.916,0.856c-0.237,0.501 -0.268,1.711 -0.202,2.243c0.034,0.267 0.3,1.079 0.583,1.232c0.354,0.19 1.508,0.186 1.766,-0.205c0.132,-0.199 0.238,-1.007 0.254,-1.126c0.008,-0.061 -0.004,-0.577 -0.004,-0.515m11.406,-0.539c-0.054,-0.496 -0.602,-1.742 -1.127,-1.932c-0.061,-0.02 -0.198,-0.038 -0.262,-0.034c-0.031,0.002 -0.102,0.013 -0.132,0.021c-0.316,0.082 -0.704,0.602 -0.828,0.883c-0.216,0.49 -0.297,1.718 -0.206,2.239c0.048,0.27 0.276,1.155 0.598,1.294c0.433,0.186 1.732,-0.111 1.859,-0.647c0.046,-0.195 0.123,-0.621 0.146,-0.82" style="fill:#1bbc9b;fill-rule:nonzero;"/></svg>